<svg xmlns="http://www.w3.org/2000/svg" xmlns:xlink="http://www.w3.org/1999/xlink" width="543" zoomAndPan="magnify" viewBox="0 0 407.25 136.499996" height="182" preserveAspectRatio="xMidYMid meet" version="1.0"><defs><g/><clipPath id="02ab4d1346"><path d="M 0.371094 10.28125 L 49.152344 10.28125 L 49.152344 124.660156 L 0.371094 124.660156 Z M 0.371094 10.28125 " clip-rule="nonzero"/></clipPath></defs><g clip-path="url(#02ab4d1346)"><path fill="#231f20" d="M 49.152344 67.46875 L 24.585938 67.46875 L 24.585938 10.382812 L 49.152344 10.382812 Z M 24.585938 124.558594 L 0.015625 124.558594 L 0.015625 67.46875 L 24.585938 67.46875 Z M 24.585938 124.558594 " fill-opacity="1" fill-rule="nonzero"/></g><g fill="#292d32" fill-opacity="1"><g transform="translate(78.785532, 86.984817)"><g><path d="M 57.484375 -42.03125 L 45.296875 0 L 39.140625 0 L 29.375 -33.828125 L 19.234375 0 L 13.140625 0.0625 L 1.390625 -42.03125 L 7.234375 -42.03125 L 16.40625 -6.390625 L 26.53125 -42.03125 L 32.6875 -42.03125 L 42.34375 -6.515625 L 51.5625 -42.03125 Z M 57.484375 -42.03125 "/></g></g></g><g fill="#292d32" fill-opacity="1"><g transform="translate(152.005793, 86.984817)"><g><path d="M 29.5 -9.34375 L 11.15625 -9.34375 L 7.78125 0 L 1.984375 0 L 17.1875 -41.796875 L 23.515625 -41.796875 L 38.65625 0 L 32.875 0 Z M 27.921875 -13.8125 L 20.328125 -35.046875 L 12.71875 -13.8125 Z M 27.921875 -13.8125 "/></g></g></g><g fill="#292d32" fill-opacity="1"><g transform="translate(207.012499, 86.984817)"><g><path d="M 10.125 -4.46875 L 24.84375 -4.46875 L 24.84375 0 L 4.640625 0 L 4.640625 -42.03125 L 10.125 -42.03125 Z M 10.125 -4.46875 "/></g></g></g><g fill="#292d32" fill-opacity="1"><g transform="translate(247.424239, 86.984817)"><g><path d="M 10.125 -4.46875 L 24.84375 -4.46875 L 24.84375 0 L 4.640625 0 L 4.640625 -42.03125 L 10.125 -42.03125 Z M 10.125 -4.46875 "/></g></g></g><g fill="#292d32" fill-opacity="1"><g transform="translate(287.83598, 86.984817)"><g><path d="M 10.125 -37.578125 L 10.125 -23.515625 L 25.453125 -23.515625 L 25.453125 -19 L 10.125 -19 L 10.125 -4.53125 L 27.265625 -4.53125 L 27.265625 0 L 4.640625 0 L 4.640625 -42.09375 L 27.265625 -42.09375 L 27.265625 -37.578125 Z M 10.125 -37.578125 "/></g></g></g><g fill="#292d32" fill-opacity="1"><g transform="translate(333.132795, 86.984817)"><g><path d="M 30.515625 -42.03125 L 30.515625 -37.578125 L 19.0625 -37.578125 L 19.0625 0 L 13.578125 0 L 13.578125 -37.578125 L 2.046875 -37.578125 L 2.046875 -42.03125 Z M 30.515625 -42.03125 "/></g></g></g></svg>