<svg xmlns="http://www.w3.org/2000/svg" xmlns:xlink="http://www.w3.org/1999/xlink" width="500" zoomAndPan="magnify" viewBox="0 0 375 374.999991" height="500" preserveAspectRatio="xMidYMid meet" version="1.0"><defs><g/><clipPath id="0f792ac543"><path d="M 84.550781 12.167969 L 234.550781 12.167969 L 234.550781 363 L 84.550781 363 Z M 84.550781 12.167969 " clip-rule="nonzero"/></clipPath></defs><g clip-path="url(#0f792ac543)"><path fill="#231f20" d="M 84.550781 187.671875 L 159.550781 187.671875 L 159.550781 362.902344 L 84.550781 362.902344 Z M 159.550781 12.441406 L 234.550781 12.441406 L 234.550781 187.671875 L 159.550781 187.671875 Z M 159.550781 12.441406 " fill-opacity="1" fill-rule="nonzero"/></g><g fill="#2b2b2b" fill-opacity="1"><g transform="translate(178.764924, 284.204278)"><g><path d="M 6.546875 0.078125 L 13.265625 0.078125 L 13.859375 0 L 14.109375 -1 L 14.1875 -1.671875 L 14.28125 -2.4375 L 14.53125 -3.109375 L 14.609375 -3.6875 L 14.78125 -4.203125 L 14.859375 -4.78125 L 14.859375 -5.453125 L 15.203125 -5.96875 L 15.203125 -7.140625 L 15.453125 -8.390625 L 15.453125 -9.234375 L 15.703125 -9.828125 L 15.78125 -10.40625 L 16.03125 -11.421875 L 16.203125 -12 L 16.375 -13.015625 L 16.625 -13.765625 L 16.875 -14.953125 L 16.875 -15.453125 L 16.96875 -16.03125 L 17.125 -16.546875 L 17.21875 -17.125 L 17.296875 -17.640625 L 17.375 -18.71875 L 17.546875 -19.140625 L 17.640625 -20.234375 L 17.890625 -20.90625 L 17.96875 -21.5 L 17.96875 -21.65625 L 19.234375 -21.578125 L 21.078125 -21.578125 L 22.671875 -21.5 L 25.015625 -21.65625 L 26.203125 -21.828125 L 27.296875 -21.921875 L 28.296875 -22.078125 L 29.640625 -22.5 L 30.734375 -23 L 31.578125 -23.265625 L 32.75 -23.84375 L 33.171875 -24.34375 L 34.265625 -25.1875 L 34.671875 -25.78125 L 35.265625 -26.625 L 36.015625 -27.296875 L 36.609375 -28.296875 L 37.109375 -28.796875 L 37.875 -30.0625 L 38.453125 -31.0625 L 38.875 -31.984375 L 39.546875 -33.59375 L 39.96875 -34.765625 L 40.21875 -35.4375 L 40.46875 -36.609375 L 40.640625 -37.109375 L 40.71875 -37.625 L 40.984375 -38.203125 L 41.0625 -38.875 L 41.3125 -39.46875 L 41.484375 -40.640625 L 41.65625 -42.484375 L 41.734375 -43.078125 L 41.90625 -44 L 41.984375 -44.921875 L 41.90625 -45.84375 L 41.90625 -46.4375 L 41.8125 -47.6875 L 41.90625 -48.53125 L 41.65625 -49.453125 L 41.5625 -50.046875 L 41.484375 -50.96875 L 41.140625 -51.890625 L 40.984375 -52.484375 L 40.46875 -53.578125 L 40.21875 -54.25 L 39.71875 -54.828125 L 39.21875 -55.5 L 38.875 -55.921875 L 38.125 -56.59375 L 37.03125 -57.1875 L 36.4375 -57.4375 L 35.859375 -57.859375 L 35.265625 -58.015625 L 33.921875 -58.28125 L 32.15625 -58.53125 L 31.0625 -58.6875 L 30.390625 -58.6875 L 29.140625 -58.859375 L 27.96875 -58.859375 L 26.703125 -58.78125 L 26.109375 -58.859375 L 20.484375 -58.859375 L 19.984375 -58.78125 L 18.890625 -58.859375 L 17.796875 -58.78125 L 13.4375 -58.78125 L 12.765625 -58.4375 L 12.421875 -57.34375 L 12.34375 -56.671875 L 12.09375 -55.5 L 12 -54.828125 L 11.921875 -54.25 L 11.59375 -52.90625 L 11.421875 -52.3125 L 11.421875 -51.8125 L 11.328125 -51.21875 L 11.171875 -50.640625 L 11.171875 -49.96875 L 11 -49.375 L 10.921875 -48.359375 L 10.65625 -47.609375 L 10.40625 -46.4375 L 10.25 -45.765625 L 10.15625 -44.25 L 10.078125 -43.75 L 9.828125 -42.65625 L 9.90625 -42.3125 L 9.828125 -41.390625 L 9.484375 -40.046875 L 9.40625 -39.546875 L 9.328125 -38.453125 L 9.0625 -37.875 L 8.90625 -37.28125 L 8.8125 -36.1875 L 8.8125 -35.1875 L 8.5625 -34.09375 L 8.3125 -32.75 L 8.140625 -31.484375 L 8.0625 -30.8125 L 7.8125 -29.640625 L 7.71875 -29.140625 L 7.5625 -28.546875 L 7.46875 -28.046875 L 7.3125 -27.453125 L 7.21875 -26.28125 L 7.140625 -25.609375 L 6.890625 -25.015625 L 6.640625 -23.265625 L 6.546875 -22 L 6.296875 -21.5 L 6.296875 -20.90625 L 6.125 -20.40625 L 6.125 -19.484375 L 5.703125 -18.640625 L 5.703125 -18.21875 L 5.625 -17.21875 L 5.546875 -16.703125 L 5.203125 -15.625 L 5.03125 -15.109375 L 4.953125 -14.53125 L 4.875 -13.4375 L 4.625 -12.9375 L 4.28125 -11 L 4.203125 -10.5 L 4.109375 -9.90625 L 3.859375 -8.90625 L 3.78125 -8.3125 L 3.53125 -7.21875 L 3.28125 -5.96875 L 3.015625 -4.78125 L 3.015625 -4.28125 L 2.765625 -3.109375 L 2.859375 -2.515625 L 2.609375 -2.015625 L 2.609375 -0.421875 L 3.109375 0 L 4.625 -0.078125 L 5.203125 0 Z M 19.734375 -32.25 L 19.8125 -33 L 20.0625 -34.171875 L 20.0625 -34.9375 L 20.484375 -37.03125 L 20.65625 -37.78125 L 20.65625 -38.453125 L 20.734375 -39.46875 L 20.984375 -40.8125 L 21.15625 -41.65625 L 21.40625 -43.328125 L 21.65625 -44.328125 L 21.828125 -44.921875 L 22 -46.34375 L 22.078125 -47.1875 L 22.25 -47.609375 L 22.671875 -48.625 L 23.265625 -48.78125 L 25.1875 -48.875 L 27.453125 -48.78125 L 28.21875 -48.625 L 29.140625 -47.953125 L 29.640625 -47.1875 L 29.984375 -46.1875 L 29.984375 -44.75 L 29.8125 -42.578125 L 29.46875 -40.21875 L 29.140625 -38.796875 L 28.796875 -38.03125 L 28.640625 -37.28125 L 28.21875 -36.109375 L 27.875 -35.609375 L 27.296875 -34.671875 L 26.359375 -33.84375 L 25.015625 -32.828125 L 24.4375 -32.578125 L 22.84375 -32.40625 L 21.921875 -32.25 Z M 19.734375 -32.25 "/></g></g></g><g fill="#2b2b2b" fill-opacity="1"><g transform="translate(217.215456, 284.204278)"><g><path d="M 6.796875 0.171875 L 7.46875 0.078125 L 9.828125 0.171875 L 10.328125 -0.171875 L 10.65625 -0.75 L 10.921875 -1.171875 L 11.171875 -2.09375 L 11.671875 -3.359375 L 12.515625 -4.953125 L 12.84375 -5.96875 L 13.09375 -6.546875 L 13.265625 -7.140625 L 13.859375 -8.234375 L 14.28125 -9.15625 L 16.546875 -9.15625 L 20.234375 -9.0625 L 21.578125 -8.90625 L 23.421875 -8.8125 L 23.515625 -8.140625 L 23.515625 -4.203125 L 23.421875 -3.359375 L 23.515625 -2.515625 L 23.59375 -1 L 23.765625 -0.171875 L 24.09375 0.078125 L 25.359375 0.078125 L 26.453125 0.171875 L 27.296875 0.078125 L 27.875 0 L 28.890625 0.078125 L 29.5625 0.078125 L 31.40625 0 L 32.578125 0 L 33.25 0.078125 L 33.84375 0 C 34.171875 0 34.421875 0.078125 34.765625 0 C 35.1875 -0.25 35.09375 -1 35.015625 -1.34375 L 35.015625 -3.109375 L 34.9375 -4.953125 L 34.9375 -5.703125 L 34.84375 -6.375 L 34.9375 -7.5625 L 34.9375 -8.8125 L 34.84375 -9.40625 L 34.765625 -10.5 L 34.765625 -11 L 34.59375 -14.1875 L 34.671875 -14.78125 L 34.59375 -15.953125 L 34.671875 -17.21875 L 34.59375 -18.46875 L 34.59375 -19.0625 L 34.515625 -22.921875 L 34.515625 -25.4375 L 34.421875 -26.109375 L 34.34375 -27.125 L 34.34375 -30.390625 L 34.171875 -31.3125 L 34.09375 -32.65625 L 34.09375 -33.171875 L 34 -34.265625 L 34.09375 -34.765625 L 34 -35.9375 L 34 -37.625 L 33.84375 -38.796875 L 33.84375 -40.640625 L 33.921875 -41.234375 L 33.84375 -42.484375 L 33.84375 -43.65625 L 33.671875 -45.34375 L 33.59375 -46.4375 L 33.59375 -47.609375 L 33.5 -50.640625 L 33.5 -52.140625 L 33.328125 -52.640625 L 33.328125 -54.5 L 33.078125 -58.109375 L 32.5 -58.53125 L 32.078125 -58.6875 L 30.734375 -58.6875 L 29.984375 -58.609375 L 29.390625 -58.78125 L 28.640625 -58.78125 L 27.03125 -58.6875 L 25.6875 -58.6875 L 24.859375 -58.609375 L 23.265625 -58.6875 L 22.421875 -58.6875 L 21.828125 -58.609375 L 21.5 -57.6875 L 21.25 -57.1875 L 20.984375 -56.59375 L 20.234375 -55.078125 L 19.65625 -53.984375 L 19.140625 -52.484375 L 18.984375 -52.0625 L 18.640625 -51.5625 L 18.140625 -50.640625 L 17.96875 -50.046875 L 17.796875 -49.546875 L 17.546875 -49.03125 L 17.375 -48.453125 L 16.625 -46.9375 L 16.375 -46.34375 L 16.125 -45.515625 L 15.625 -44.75 L 15.359375 -44.25 L 14.953125 -43.15625 L 14.28125 -41.390625 L 13.9375 -40.890625 L 13.515625 -40.3125 L 13.265625 -39.125 L 12.765625 -38.03125 L 12.59375 -37.625 L 12.34375 -36.53125 L 11.921875 -35.9375 L 11.671875 -34.84375 L 11.421875 -34.34375 L 10.921875 -33.421875 L 10.5 -31.984375 L 9.90625 -30.90625 L 9.65625 -30.234375 L 8.984375 -27.875 L 8.734375 -27.375 L 8.3125 -26.203125 L 8.0625 -25.6875 L 7.8125 -25.109375 L 7.71875 -24.609375 L 7.21875 -23.421875 L 7.046875 -22.84375 L 6.546875 -21.828125 L 6.125 -21.15625 L 5.96875 -20.40625 L 5.796875 -19.8125 L 5.203125 -18.640625 L 4.953125 -18.046875 L 4.53125 -16.96875 L 4.28125 -16.453125 L 4.203125 -15.875 L 4.03125 -15.359375 L 3.609375 -14.359375 L 3.1875 -13.765625 L 3.015625 -13.265625 L 2.34375 -11.75 L 2.015625 -10.65625 L 1.09375 -8.65625 L 0.671875 -7.640625 L 0.171875 -6.640625 L -0.671875 -4.109375 L -1.34375 -3.015625 L -1.84375 -2.015625 L -1.9375 -1.515625 L -2.09375 -0.921875 L -1.9375 -0.25 L -1.171875 -0.078125 L 4.953125 0 L 5.546875 0.078125 Z M 20.65625 -20.0625 L 19.90625 -20.15625 L 18.984375 -20.234375 L 18.3125 -20.234375 L 17.71875 -20.734375 L 17.96875 -21.328125 L 18.140625 -22.078125 L 18.3125 -22.671875 L 18.71875 -24.09375 L 19.0625 -24.6875 L 19.484375 -25.953125 L 19.5625 -26.53125 L 20.0625 -28.375 L 20.328125 -29.140625 L 20.578125 -29.71875 L 20.828125 -30.484375 L 21.15625 -31.0625 L 21.25 -31.65625 L 21.578125 -32.5 L 21.921875 -33.171875 L 22.328125 -34.515625 L 22.59375 -35.34375 L 23 -36.6875 L 23.34375 -37.78125 L 24.015625 -38.03125 L 24.09375 -36.109375 L 24.015625 -33.078125 L 23.9375 -29.890625 L 24.015625 -27.875 L 23.84375 -27.203125 L 23.84375 -25.78125 L 23.765625 -25.1875 L 23.765625 -23 L 23.671875 -22.328125 L 23.765625 -21.65625 L 23.671875 -20.484375 L 23.171875 -20.0625 Z M 20.65625 -20.0625 "/></g></g></g><g fill="#2b2b2b" fill-opacity="1"><g transform="translate(254.658554, 284.204278)"><g><path d="M 11.59375 0 L 13.34375 0 L 13.859375 -0.078125 L 15.109375 0 L 15.875 0 L 16.375 -0.078125 L 17.046875 0 L 20.0625 0 L 20.484375 -1.765625 L 20.734375 -3.28125 L 20.984375 -4.453125 L 21.328125 -5.703125 L 21.5 -6.296875 L 21.75 -7.5625 L 21.921875 -8.734375 L 21.921875 -9.234375 L 22.078125 -9.828125 L 22.328125 -10.65625 L 22.421875 -11.25 L 22.75 -12.421875 L 23.09375 -13.6875 L 23.34375 -14.859375 L 23.59375 -15.953125 L 23.515625 -16.453125 L 23.671875 -16.96875 L 23.84375 -17.96875 L 24.015625 -18.8125 L 24.265625 -19.734375 L 24.609375 -20.828125 L 24.609375 -21.40625 L 24.765625 -22.25 L 25.1875 -22.671875 L 25.4375 -23.09375 L 25.609375 -23.765625 L 25.953125 -24.1875 L 26.28125 -25.1875 L 26.875 -26.203125 L 27.125 -26.703125 L 27.375 -27.125 L 27.875 -27.625 L 28.375 -28.71875 L 29.046875 -29.71875 L 29.71875 -31.234375 L 30.234375 -32.078125 L 30.734375 -33.171875 L 31.0625 -33.75 L 31.40625 -34.265625 L 32.25 -35.34375 L 32.328125 -35.859375 L 32.75 -36.359375 L 32.921875 -36.78125 L 33.5 -37.78125 L 33.671875 -38.296875 L 33.921875 -38.875 L 34.34375 -39.96875 L 35.1875 -41.390625 L 35.34375 -41.90625 L 35.6875 -42.40625 L 35.765625 -42.90625 L 36.4375 -43.921875 L 36.953125 -45.09375 L 37.453125 -45.59375 L 38.203125 -47.1875 L 38.375 -47.6875 L 38.703125 -48.203125 L 38.875 -48.78125 L 39.546875 -49.703125 L 39.890625 -50.71875 L 40.21875 -51.140625 L 40.71875 -52.140625 L 40.8125 -52.734375 L 41.140625 -53.234375 L 41.65625 -54.25 L 41.8125 -54.75 L 42.484375 -55.671875 L 42.65625 -56.09375 L 42.90625 -57.1875 L 42.90625 -58.28125 L 41.984375 -58.78125 L 40.3125 -58.6875 L 39.375 -58.859375 L 37.203125 -58.859375 L 35.859375 -58.78125 L 34.59375 -58.953125 L 31.828125 -58.78125 L 31.234375 -58.4375 L 30.390625 -57.34375 L 29.890625 -56.515625 L 29.640625 -56 L 29.21875 -54.921875 L 28.71875 -53.734375 L 27.96875 -52.0625 L 27.796875 -51.46875 L 27.625 -50.96875 L 26.953125 -49.875 L 26.875 -49.296875 L 26.53125 -48.78125 L 26.03125 -47.6875 L 25.1875 -45.671875 L 24.6875 -44.75 L 24.265625 -43.75 L 23.59375 -42.734375 L 23.515625 -42.234375 L 23.171875 -41.65625 L 22.671875 -40.640625 L 22.5 -40.21875 L 22.328125 -39.71875 L 22.078125 -39.296875 L 21.75 -39.375 L 21.65625 -40.640625 L 21.328125 -42.828125 L 21.15625 -43.828125 L 21.15625 -44.59375 L 20.90625 -45.421875 L 20.828125 -46.515625 L 20.90625 -47.359375 L 20.578125 -48.203125 L 20.40625 -48.78125 L 20.15625 -49.96875 L 20.234375 -50.46875 L 20.0625 -52.8125 L 19.734375 -53.484375 L 19.734375 -54.328125 L 19.484375 -55 L 19.484375 -56.9375 L 19.234375 -57.765625 L 18.3125 -58.78125 L 17.046875 -58.78125 L 14.78125 -58.859375 L 13.859375 -58.6875 L 13.265625 -58.78125 L 12.421875 -58.6875 L 11.25 -58.78125 L 9.0625 -58.6875 L 8.390625 -58.609375 L 7.984375 -58.4375 L 7.71875 -57.765625 L 7.71875 -56.9375 L 7.8125 -55.84375 L 7.984375 -54.65625 L 8.0625 -54.15625 L 8.140625 -53.0625 L 8.484375 -50.546875 L 8.8125 -49.375 L 8.8125 -48.78125 L 8.984375 -47.53125 L 9.234375 -46.9375 L 9.15625 -45.9375 L 9.328125 -45.265625 L 9.484375 -43.15625 L 9.578125 -42.484375 L 10 -41.234375 L 10.25 -39.890625 L 10.25 -39.296875 L 10.40625 -38.203125 L 10.75 -37.109375 L 11 -36.109375 L 11.078125 -35.515625 L 11.328125 -34 L 11.59375 -32.75 L 11.5 -32.25 L 11.671875 -31.0625 L 11.921875 -30.484375 L 11.921875 -29.8125 L 12.171875 -28.546875 L 12.34375 -27.296875 L 12.515625 -26.703125 L 12.421875 -26.03125 L 12.515625 -25.28125 L 12.765625 -24.4375 L 12.84375 -23.421875 L 12.421875 -22 L 12.34375 -20.984375 L 12 -20.0625 L 12 -19.484375 L 11.921875 -18.984375 L 11.59375 -17.890625 L 11.328125 -16.546875 L 11.328125 -15.703125 L 11.078125 -15.03125 L 10.828125 -13.859375 L 10.65625 -12.59375 L 10.40625 -12 L 10.25 -10.921875 L 10.15625 -10 L 9.734375 -8.140625 L 9.484375 -7.390625 L 9.484375 -6.46875 L 9.328125 -5.96875 L 9.234375 -5.375 L 9.15625 -4.875 L 8.984375 -4.28125 L 9.0625 -3.78125 L 8.90625 -2.6875 L 8.734375 -1.671875 L 8.8125 -0.59375 L 9.734375 -0.078125 L 11 -0.078125 Z M 11.59375 0 "/></g></g></g></svg>